<svg width="40" height="40" viewBox="0 0 40 40" fill="none" xmlns="http://www.w3.org/2000/svg">
<g clip-path="url(#clip0_2311_262)">
<path d="M0 40H40V1.9057e-07H0V40Z" fill="#8A05BE"/>
<path d="M29.5271 16.8345C29.5271 16.2009 28.7712 15.4221 28.1564 15.4221H27.5966C27.5972 19.2995 27.5972 23.6465 27.5966 24.4181C27.5963 24.4409 27.6006 24.4636 27.6091 24.4848C27.6177 24.506 27.6303 24.5253 27.6463 24.5416C27.6623 24.5579 27.6814 24.5708 27.7024 24.5798C27.7235 24.5887 27.746 24.5934 27.7689 24.5936H29.354C29.4492 24.5936 29.5272 24.5137 29.5272 24.4167V16.8345H29.5271ZM26.9441 14.0615C26.9441 13.6604 26.7479 12.9886 25.4333 12.9886C22.8859 12.9886 21.3221 14.9844 21.3221 16.4158C21.3221 16.4158 21.3193 21.0441 21.3193 24.4166C21.319 24.4395 21.3233 24.4622 21.3318 24.4834C21.3404 24.5046 21.353 24.524 21.3691 24.5403C21.3851 24.5566 21.4042 24.5696 21.4253 24.5785C21.4464 24.5873 21.469 24.592 21.4919 24.5921H23.079C23.1742 24.5921 23.2525 24.5127 23.2525 24.4151V16.9786C23.2525 15.7499 24.2249 14.7533 25.4237 14.7533H26.9449L26.9441 14.0615ZM29.4743 25.2605H27.6483C27.2601 25.2605 26.9439 24.9362 26.9439 24.5384V15.4213H25.4226C24.5832 15.4213 23.903 16.1187 23.903 16.9788V24.5384C23.903 24.9372 23.5872 25.2608 23.1982 25.2608H21.3715C20.9824 25.2608 20.6668 24.9372 20.6662 24.5384C20.6652 21.2421 20.669 16.4156 20.669 16.4156C20.6693 13.8787 23.4437 12.3209 25.4328 12.3209C26.767 12.3209 27.5957 12.9893 27.5957 14.0661V14.7535H28.1561C29.139 14.7535 30.1787 15.8229 30.1787 16.8345V24.5384C30.1797 24.9372 29.864 25.2608 29.4744 25.2608V25.2605H29.4743ZM18.6825 15.5834C18.6827 15.5606 18.6784 15.5379 18.6699 15.5167C18.6613 15.4955 18.6486 15.4762 18.6326 15.46C18.6166 15.4437 18.5975 15.4307 18.5764 15.4219C18.5554 15.413 18.5328 15.4084 18.5099 15.4083H16.9229C16.8263 15.4083 16.7489 15.4883 16.7494 15.5848V23.0214C16.7494 24.25 15.7767 25.2466 14.5781 25.2466H13.0568V25.9386C13.0568 26.3388 13.253 27.0115 14.5676 27.0115C17.1151 27.0115 18.6793 25.0158 18.6793 23.5843C18.6793 23.5843 18.6821 18.9336 18.6821 15.5835H18.6825V15.5834ZM10.6461 15.4067C10.5495 15.4096 10.4723 15.4874 10.4734 15.5839V23.1648C10.4734 23.7984 11.2295 24.5783 11.844 24.5783H12.4043C12.4035 19.0257 12.4035 16.1844 12.4043 15.5843C12.4048 15.5379 12.3868 15.4933 12.3544 15.4601C12.322 15.4269 12.2778 15.4079 12.2314 15.4073H10.6464L10.6461 15.4067ZM19.3307 23.5842C19.331 26.1214 16.5565 27.6792 14.5676 27.6792C13.2331 27.6792 12.4043 27.0109 12.4043 25.934V25.2466H11.8443C10.861 25.2466 9.82129 24.1772 9.82129 23.1655V15.4617C9.82129 15.0629 10.137 14.7393 10.5258 14.7393H12.3514C12.3628 14.7393 12.3725 14.7424 12.3839 14.7424C12.757 14.7603 13.0559 15.0745 13.0559 15.4617V24.5788H14.5774C15.4164 24.5788 16.097 23.8814 16.097 23.0213V15.4616C16.097 15.0628 16.4128 14.7392 16.8016 14.7392H18.6287C19.0177 14.7392 19.3332 15.062 19.3332 15.4616C19.3345 18.8194 19.3309 23.5844 19.3309 23.5844L19.3307 23.5842Z" fill="white"/>
</g>
<defs>
<clipPath id="clip0_2311_262">
<rect width="40" height="40" fill="white" transform="matrix(1 0 0 -1 0 40)"/>
</clipPath>
</defs>
</svg>
