<svg width="27" height="27" viewBox="0 0 27 27" fill="none" xmlns="http://www.w3.org/2000/svg">
<g clip-path="url(#clip0_2311_308)">
<path d="M0 0H27V27H0V0Z" fill="#8A05BE"/>
<path d="M19.9308 15.6367C19.9308 16.0644 19.4206 16.5901 19.0056 16.5901H18.6277C18.6281 13.9728 18.6281 11.0386 18.6277 10.5178C18.6275 10.5024 18.6304 10.4871 18.6362 10.4728C18.642 10.4585 18.6505 10.4454 18.6613 10.4344C18.6721 10.4234 18.685 10.4147 18.6992 10.4086C18.7134 10.4026 18.7286 10.3995 18.744 10.3993H19.814C19.8782 10.3993 19.9309 10.4533 19.9309 10.5187V15.6367H19.9308ZM18.1873 17.5085C18.1873 17.7792 18.0548 18.2327 17.1675 18.2327C15.448 18.2327 14.3924 16.8855 14.3924 15.9193C14.3924 15.9193 14.3905 12.7952 14.3905 10.5188C14.3904 10.5033 14.3932 10.488 14.399 10.4737C14.4048 10.4594 14.4133 10.4463 14.4242 10.4353C14.435 10.4243 14.4479 10.4155 14.4621 10.4095C14.4764 10.4035 14.4916 10.4004 14.5071 10.4003H15.5783C15.6426 10.4003 15.6954 10.4539 15.6954 10.5198V15.5394C15.6954 16.3688 16.3519 17.0415 17.161 17.0415H18.1879L18.1873 17.5085ZM19.8952 9.94916H18.6627C18.4006 9.94916 18.1872 10.168 18.1872 10.4365V16.5906H17.1603C16.5937 16.5906 16.1345 16.1199 16.1345 15.5393V10.4365C16.1345 10.1674 15.9214 9.94892 15.6588 9.94892H14.4258C14.1632 9.94892 13.9501 10.1674 13.9497 10.4365C13.9491 12.6616 13.9516 15.9194 13.9516 15.9194C13.9518 17.6319 15.8245 18.6834 17.1672 18.6834C18.0678 18.6834 18.6271 18.2322 18.6271 17.5054V17.0414H19.0054C19.6689 17.0414 20.3707 16.3195 20.3707 15.6367V10.4365C20.3713 10.1674 20.1582 9.94892 19.8952 9.94892V9.94916H19.8952ZM12.6107 16.4812C12.6109 16.4966 12.608 16.5119 12.6022 16.5262C12.5964 16.5405 12.5879 16.5535 12.577 16.5645C12.5662 16.5755 12.5533 16.5842 12.5391 16.5902C12.5249 16.5962 12.5096 16.5993 12.4942 16.5994H11.423C11.3578 16.5994 11.3056 16.5454 11.3058 16.4802V11.4605C11.3058 10.6312 10.6493 9.9585 9.84026 9.9585H8.81337V9.49143C8.81337 9.2213 8.94582 8.76723 9.83312 8.76723C11.5527 8.76723 12.6086 10.1143 12.6086 11.0806C12.6086 11.0806 12.6105 14.2198 12.6105 16.4811H12.6107V16.4812ZM7.18614 16.6005C7.12096 16.5985 7.06884 16.546 7.06959 16.4808V11.3638C7.06959 10.9361 7.5799 10.4097 7.99474 10.4097H8.37294C8.37236 14.1577 8.37236 16.0755 8.37294 16.4806C8.37324 16.5119 8.36112 16.542 8.33924 16.5644C8.31737 16.5868 8.28752 16.5996 8.25622 16.6H7.18632L7.18614 16.6005ZM13.0482 11.0806C13.0485 9.36803 11.1757 8.31653 9.83318 8.31653C8.93236 8.31653 8.37294 8.76764 8.37294 9.49451V9.9585H7.99491C7.33119 9.9585 6.62939 10.6804 6.62939 11.3633V16.5634C6.62939 16.8325 6.84247 17.051 7.10494 17.051H8.33725C8.34491 17.051 8.35147 17.0489 8.35913 17.0489C8.61098 17.0368 8.81273 16.8247 8.81273 16.5634V10.4093H9.8398C10.4061 10.4093 10.8655 10.88 10.8655 11.4606V16.5634C10.8655 16.8326 11.0787 17.051 11.3411 17.051H12.5744C12.837 17.051 13.0499 16.8331 13.0499 16.5634C13.0508 14.2969 13.0484 11.0805 13.0484 11.0805L13.0482 11.0806Z" fill="white"/>
</g>
<defs>
<clipPath id="clip0_2311_308">
<rect width="27" height="27" fill="white"/>
</clipPath>
</defs>
</svg>
